# xmcd
# 
# Track frame offsets:
#     150
#     17315
#     53106
#     67147
#     80105
# 
# Disc length: 1355
# 
# Revision: 12
# Processed by: cddbd v1.5.2PL0 Copyright (c) Steve Scherf et al.
# Submitted via: fre:ac v1.0.31
# 
DISCID=3b054905
DTITLE=Queen - A Day At The Races Disc 2
DYEAR=2011
DGENRE=Rock/Pop
TTITLE0=Tie Your Mother Down (Backing Track Mix 2011)
TTITLE1=Somebody to Love (Live at Milton Keynes Bowl, June 1982)
TTITLE2=You Take My Breath Away (Live in Hyde Park, September 1976)
TTITLE3=Good Old-Fashioned Lover Boy (Top of The Pops, July 1977) (Mono)
TTITLE4=Teo Torriatte (Let Us Cling Together) (HD Mix)
EXTD=
EXTT0=
EXTT1=
EXTT2=
EXTT3=
EXTT4=
PLAYORDER=
